<svg version="1.1" xmlns="http://www.w3.org/2000/svg" xmlns:xlink="http://www.w3.org/1999/xlink" width="57" height="49" viewBox="0,0,57,49"><g transform="translate(-211.5,-155.5)"><g data-paper-data="{&quot;isPaintingLayer&quot;:true}" fill-rule="nonzero" stroke="#ff3355" stroke-width="1" stroke-linecap="butt" stroke-linejoin="miter" stroke-miterlimit="10" stroke-dasharray="" stroke-dashoffset="0" style="mix-blend-mode: normal"><path d="M216,204c-2.20914,0 -4,-1.79086 -4,-4v-40c0,-2.20914 1.79086,-4 4,-4h48c2.20914,0 4,1.79086 4,4v40c0,2.20914 -1.79086,4 -4,4z" fill="#ff6680"/><path d="M259.52436,194.815c0,2.31244 -1.8746,4.18705 -4.18705,4.18705h-30.67462c-2.31244,0 -4.18705,-1.8746 -4.18705,-4.18704v-29.63c0,-2.31244 1.8746,-4.18705 4.18705,-4.18705h30.67462c2.31244,0 4.18705,1.87461 4.18705,4.18705z" fill="#ff4d6a"/><path d="M255.36493,173.42363c0,2.31244 -1.8746,4.18705 -4.18705,4.18705h-22.35576c-2.31244,0 -4.18705,-1.8746 -4.18705,-4.18704v-4.67341c0,-2.31244 1.8746,-4.18705 4.18705,-4.18705h22.35576c2.31244,0 4.18705,1.87461 4.18705,4.18705z" fill="#ff6680"/><path d="M255.36493,191.24977c0,2.31244 -1.8746,4.18705 -4.18705,4.18705h-22.35576c-2.31244,0 -4.18705,-1.8746 -4.18705,-4.18704v-4.67341c0,-2.31244 1.8746,-4.18705 4.18705,-4.18705h22.35576c2.31244,0 4.18705,1.87461 4.18705,4.18705z" fill="#ff6680"/></g></g></svg>