<svg version="1.1" xmlns="http://www.w3.org/2000/svg" xmlns:xlink="http://www.w3.org/1999/xlink" width="57.02472" height="49" viewBox="0,0,57.02472,49"><g transform="translate(-211.5,-155.5)"><g data-paper-data="{&quot;isPaintingLayer&quot;:true}" fill-rule="nonzero" stroke="#ff3355" stroke-width="1" stroke-linecap="butt" stroke-linejoin="miter" stroke-miterlimit="10" stroke-dasharray="" stroke-dashoffset="0" style="mix-blend-mode: normal"><path d="M217.69375,198.49994v-37.42157h50.30441v37.42157z" fill="#ff4d6a"/><path d="M268.02472,163.92977c0,1.86371 -1.51084,3.37455 -3.37455,3.37455h-5.46514c-1.68728,0 -2.53091,0.84364 -3.37455,1.68728l-3.37455,3.37455c-0.84364,0.84364 -1.68728,1.68728 -3.37455,1.68728h-10.12365c-1.68728,0 -2.53091,-0.84364 -3.37455,-1.68728l-3.37455,-3.37455c-0.84364,-0.84364 -1.68728,-1.68728 -3.37455,-1.68728h-6.41165c-1.86371,0 -3.37455,1.51084 -3.37455,3.37455v16.56554c0,1.86371 1.51084,3.37455 3.37455,3.37455h6.41165c1.68728,0 2.53091,0.84364 3.37455,1.68728l3.37455,3.37455c0.84364,0.84364 1.68728,1.68728 3.37455,1.68728h10.12365c1.68728,0 2.53091,-0.84364 3.37455,-1.68728l3.37455,-3.37455c0.84364,-0.84364 1.68728,-1.68728 3.37455,-1.68728h5.46514c1.86371,0 3.37455,1.51084 3.37455,3.37455l-0.02472,6.00649c0,2.20914 -1.79086,4 -4,4h-48c-2.20914,0 -4,-1.79086 -4,-4v-40c0,-2.20914 1.79086,-4 4,-4h48c2.20914,0 4,1.79086 4,4z" fill="#ff6680"/></g></g></svg>