<svg version="1.1" xmlns="http://www.w3.org/2000/svg" xmlns:xlink="http://www.w3.org/1999/xlink" width="57" height="49" viewBox="0,0,57,49"><g transform="translate(-211.5,-155.5)"><g data-paper-data="{&quot;isPaintingLayer&quot;:true}" fill-rule="nonzero" stroke="#ff3355" stroke-width="1" stroke-linecap="butt" stroke-linejoin="miter" stroke-miterlimit="10" stroke-dasharray="" stroke-dashoffset="0" style="mix-blend-mode: normal"><path d="M216,204c-2.20914,0 -4,-1.79086 -4,-4v-40c0,-2.20914 1.79086,-4 4,-4h48c2.20914,0 4,1.79086 4,4v40c0,2.20914 -1.79086,4 -4,4z" fill="#ff6680"/><path d="M254.815,160.47564c2.31244,0 4.18705,1.8746 4.18705,4.18705l0,30.67462c0,2.31244 -1.8746,4.18705 -4.18704,4.18705h-29.63c-2.31244,0 -4.18705,-1.8746 -4.18705,-4.18705l0,-30.67462c0,-2.31244 1.87461,-4.18705 4.18705,-4.18705z" fill="#ff4d6a"/></g></g></svg>