<svg version="1.1" xmlns="http://www.w3.org/2000/svg" xmlns:xlink="http://www.w3.org/1999/xlink" width="57" height="49" viewBox="0,0,57,49"><g transform="translate(-211.5,-155.5)"><g data-paper-data="{&quot;isPaintingLayer&quot;:true}" fill-rule="nonzero" stroke="#ff3355" stroke-width="1" stroke-miterlimit="10" stroke-dasharray="" stroke-dashoffset="0" style="mix-blend-mode: normal"><path d="M216,204c-2.20914,0 -4,-1.79086 -4,-4v-40c0,-2.20914 1.79086,-4 4,-4h48c2.20914,0 4,1.79086 4,4v40c0,2.20914 -1.79086,4 -4,4z" fill="#ff6680" stroke-linecap="butt" stroke-linejoin="miter"/><path d="M239.68439,199.05591c-10.52429,0 -19.05591,-8.53162 -19.05591,-19.05591v0c0,-10.52429 8.53162,-19.05591 19.05591,-19.05591h0.63123c10.52429,0 19.05591,8.53162 19.05591,19.05591v0c0,10.52429 -8.53162,19.05591 -19.05591,19.05591z" fill="#ff4d6a" stroke-linecap="round" stroke-linejoin="round"/></g></g></svg>